<svg id="Ebene_1" data-name="Ebene 1" xmlns="http://www.w3.org/2000/svg" viewBox="0 0 128 128">
  <defs>
    <style>
      .cls-1 {
        fill: #fff;
      }

      .cls-1, .cls-2 {
        stroke: #000;
        stroke-miterlimit: 10;
        stroke-width: 8px;
      }

      .cls-2 {
        fill: none;
      }
    </style>
  </defs>
  <path class="cls-1" d="M98,40.55,67.93,10.91,63.47,6.46,32.55,37.38l0,0-3.14,3.14a48.48,48.48,0,1,0,68.56,0Z"/>
  <line class="cls-2" x1="67" y1="10" x2="67" y2="123"/>
  <path d="M86.22,54.83a1.5,1.5,0,0,0,0-3,1.5,1.5,0,0,0,0,3Z"/>
  <path d="M73.22,35.64h.32l-2.39-.32.3.11-2.15-.91.26.2-1.82-1.4.24.26-1.41-1.83A14.86,14.86,0,0,1,68,34.64l-.9-2.15c1.17,2.8,2.15,5.83,3.91,8.32A30.44,30.44,0,0,0,74.55,45a32.58,32.58,0,0,1,2.69,2.82L75.83,46c.88,1.17,1.61,2.43,2.39,3.66A51.22,51.22,0,0,0,82,54.78C83.9,57,86,59.11,87.75,61.42L86.34,59.6a41.93,41.93,0,0,1,4.83,9.12l-.91-2.15a28.24,28.24,0,0,1,2,6.4L92,70.58c.41,3.26-.13,6.54-.56,9.77L91.74,78a48,48,0,0,1-2.88,12l.91-2.15a23.2,23.2,0,0,1-2.69,4.72l1.4-1.82c-2.86,3.68-7,6.37-10.68,9.2l1.82-1.4a20.24,20.24,0,0,1-3.8,2.39L78,100a11.48,11.48,0,0,1-1.53.52l11.07,6.28a82.81,82.81,0,0,1-4.26-17.72l.32,2.4a150.28,150.28,0,0,1-1.06-20.67c0-3.39.12-6.78.25-10.17.12-3.55.16-7.14.6-10.67L83,52.34q.19-1.4.51-2.76H66.19q3.14,9.93,6.28,19.86c1,3,2,6.09,3.12,9.08a46,46,0,0,1,2.84,9.2l-.33-2.39a15.59,15.59,0,0,1,.08,3.86l.32-2.39a12.77,12.77,0,0,1-.61,2.51l17.68,2.4a57.51,57.51,0,0,1,.33-11.13L95.57,83a56.8,56.8,0,0,1,3.2-12.58c.78-2.06.16-5.1-.91-6.93a9,9,0,0,0-12.31-3.23,10.16,10.16,0,0,0-4.14,5.38,62.19,62.19,0,0,0-3.84,26.09c.31,4.5,3.19,8.22,7.81,8.84s8.38-2.17,9.87-6.45c3.08-8.86-1.44-17.41-4.19-25.64-2.62-7.85-5-15.78-7.51-23.67-1.16-3.64-4.66-6.78-8.68-6.6-3.85.17-7.77,2.65-8.68,6.6-1.09,4.74-1.2,9.62-1.38,14.45-.16,4.16-.29,8.32-.31,12.48a146.92,146.92,0,0,0,2,26.41,79.78,79.78,0,0,0,3.6,13.44,9,9,0,0,0,11.07,6.28c3.77-1,6.63-3.14,9.63-5.47,2.16-1.68,4.35-3.33,6.46-5.06a31.47,31.47,0,0,0,9.86-15.17c1.65-5.21,2.24-10.84,2.79-16.25a26.13,26.13,0,0,0-.84-10.11,74.79,74.79,0,0,0-3.77-9.3,39.55,39.55,0,0,0-5.81-9c-1.86-2.25-3.92-4.33-5.71-6.64l1.41,1.82c-1.4-1.85-2.48-3.91-3.87-5.77a31.09,31.09,0,0,0-3.47-4,31.15,31.15,0,0,1-2.38-2.5l1.41,1.82a21.93,21.93,0,0,1-2.58-4.73l.91,2.15c-.84-2-1.6-4.06-2.57-6a10.77,10.77,0,0,0-9.47-6c-4.71-.13-9.22,4.23-9,9a9.17,9.17,0,0,0,9,9Z"/>
  <path d="M74.33,121.89c4.71,0,9.22-4.14,9-9a9.15,9.15,0,0,0-9-9c-4.7,0-9.21,4.14-9,9a9.16,9.16,0,0,0,9,9Z"/>
  <path d="M75.91,46.83a28.4,28.4,0,0,1,5.35,1.6l-2.15-.91a32.12,32.12,0,0,1,6.89,4l-1.83-1.41a36.47,36.47,0,0,1,6.28,6.32L89,54.64a46.19,46.19,0,0,1,5.68,9.91l-.9-2.15a62,62,0,0,1,2.48,7.25c1.25,4.53,6.44,7.78,11.07,6.28a9.17,9.17,0,0,0,6.29-11.07A58,58,0,0,0,101.72,42a38.63,38.63,0,0,0-21-12.48,9.63,9.63,0,0,0-6.94.9,9.24,9.24,0,0,0-4.13,5.38,9.09,9.09,0,0,0,.91,6.94,8.86,8.86,0,0,0,5.37,4.13Z"/>
</svg>
