<svg id="Ebene_1" data-name="Ebene 1" xmlns="http://www.w3.org/2000/svg" viewBox="0 0 2127.26 544.41">
  <defs>
    <style>
      .cls-1 {
        fill: #121212;
      }
    </style>
  </defs>
  <path class="cls-1" d="M985.3,1066c-7.38-11.37-19.67-16.29-21.52-24s-7.37-12.3-9.83-16.91,4.38-34.11,1.84-40.57-15.21-9.91-15.44-10.83,23-16.06,22.51-22.06a72.47,72.47,0,0,0-.92-8.14s6.76-3.38,9.07-6.3c-18.6,7.07-39.5,9.37-45,9.22,10.45-6.3,18.44-10.61,20.9-14.76s14.45-9.06,15.83-13.21a81.22,81.22,0,0,1-14.91,2.92s14.6-4.15,18.29-10.91c-22,8.14-31.51,7.37-36.88,6.14s-9.76-3.92-14.07-3.15-3.53-5.45-6-6.22-.92-6.15,1.15-8.22a11.41,11.41,0,0,1,9-3.92c4.61,0,32.05-6,40.81-17.37-10,5.69-21.67,5.53-21.67,5.53s10.91-6.14,14.6-15.67,3.22-15.22-7.07-13.83-11.68,6-17.68,3.22-10.6-4.45-15.52-3.84-10.91-2.15-13.21-4.45a10,10,0,0,1-2.77-4.62s23.36-3.68,28.43-13.06c-6.3.92-16.75,3.69-16.75,3.69s15.67-14,18.9-26.89c-5.45,2.57-15.6,13.4-15.6,13.4s-1.15-5.64-4.84-5.53-4.95,2.19-4.95,2.19-5.65-2.61-7.11-5.3-4.92-3.77-4.92-3.77,9-7.83,7.76-16.75-7.68-8-11.06-8.68-9.23-9.22-11.07-14.22-2.54-19.51-3-27.35.7-16.71-2.07-18.67-.69-13.37-2.19-13.6-3,6.8-3.34,16.25-6.23,42.07-16,52.33c1.5.34,5.42-1.62,5.42-1.62s-7.49,10.15-12.33,10c7.61,2.08,15.79-5.19,15.79-5.19s.23,8.53-1.15,11.65-24.32,6.56-27.67,4.72-7.6-3.69-9-3.46,1.62,6.46,6.46,9.45,14.41,5,14.41,5-5.54,4.5-2.88,9.68,4.37,5,4.37,5-11.87,6.11-14.17,13.25,1.38,14.76,5.88,16.6c-1.62,3.46-21.21,13.14-28,12s-8.19.23-8.07,2.77,7.49,6.22,16.94,5.64c4.15,2,2.08,4.38-.8,4.27,6.68,4.49,23.62-2,23.62-2s-6,6.34-6.22,9.45c11.53-.46,15.45-8.76,15.45-8.76s-.7,12-9.8,26.74-19.83,18.9-19.83,18.9a78.11,78.11,0,0,0,10.49-.34c-.8,4.61,5.53,9.1,13.49,7.26-4.84,4-4.27,9.8-5.54,13.14s-5.41,5.65-10.25,6.8-7.1-2.11-16.83-2l-2.54,0s3.31-3.61,6.07-6.15,2.77-6.53-.23-10.37-7.6-2.77-10.91-3.15a6,6,0,0,1-4.53-2.54s18-4.61,20.82-8.45,12.91-19.52,7.92-24.67-7.92,4.77-14.83,2-7.3-3.76-15.76-1.84l4-3.61s-8.68-4.85-17.67-8.76-13.22-9-13.22-9,3.69-5.31,6.76-6.15a10.34,10.34,0,0,0,7.61-9c.84-5.69,3.46-10.84.84-12.22s-10.75,2.69-15.6,1.84-18.44-9.22-22-12.52S735,829,735,829s.38-5-1.23-6.92,5.84-8.37,8.45-7.45,23.82,5.53,32.66-1.46c-9.83,1.07-24.13-7.07-24.13-7.07s19.9-2,24.21-7.3,10.45-10.68,6.53-14.37-10,3.15-13.37,1.23-12.14-7.38-17.6-8.07C767,776,783.67,758.28,784.36,755s-.38-6.53,2-10.76,2.07-11.06,2.07-11.06S775,751.29,758.12,754.4s-29.51,2-38-4.61S714.66,731,714.66,731a68.26,68.26,0,0,0,15.1,1.73c-4.72-7.26-9.56-8-9.56-8s8.07-.81,5.82-8.59c5.07,2.88,22.07-1.21,26.45-8.12-3.4.29-6.45.4-6.45.4a5.66,5.66,0,0,0,2.53-4.32c.23-3-12.22-9-12.22-9s.64-2.36-.57-3.57a5.41,5.41,0,0,0-2.94-1.39s.75-2.24-2.6-6.39-7-4.44-7-4.44-.05-6.69.41-6.74,1.84,2,3.8,1.15,1.56-5.42.4-11-7.49-13.08-9.33-16.66-4.55-5.7-4.61-11.7-.41-9.39-1.21-11.75-2.83-3.81-2.88-7.15-1.5-14-2.77-14.41-.52,9.11-1.9,12.11-.75,10-.87,15-.29,10-1.55,12.79-12.57,26.57-12.57,26.57,7.32-5.15,9.17-8.68c-1.56,8.28-2.65,11.85-2.65,11.85h3.45S689.77,681.9,685,685.59s-.61,16.91-2.53,20.21-13.22,2-13.22,2a44.12,44.12,0,0,0,12,4.69c-8.61,2.84-28.74,2.15-34.58-3.46,11.91,15.37,25.82,16.21,25.82,16.21S658.19,728.31,648,725c7.07,7.07,21.13,13.37,30.05,11.6-2.23,5.54-23.59,24.52-23.59,24.52s8.37-.77,12.68-5.08a53,53,0,0,0,1,7.84s6-5.68,10.22-9.53S696.53,730,696.53,730s-9.53,26.81-18,38.34S647.66,798,647.66,798s5.53.85,9-.92c4.53,6.45,17.6,4.3,17.6,4.3s-6.15,11.91-7.65,17-16,15-16,15,8.41-13.6,5.42-15.68-10.15,9-22.25,10.49-24.44-3.57-24.44-3.57,10.3-7.23,10.46-10.53-12.76-6.53-15.83-14.14-7-20-7-20,10.53,14.6,15.6,17.45,11.22,6.68,14.06,8.06,16.76.93,16.76.93l-14.91-5.77s16.75-1.3,16.9-7.22-13.6-7.68-23.13-18.67-21.59-24-21.59-24,7.69,2.54,9.76,4.77,9.22,3,12.83,2.53,9.45,1.16,13.76-3.76c-4.92,1-7.76-.46-8.45-1.92s-6.08-4.38-9.61-5.84-5.53-6.3-10.91-12.07-12.3-17.9-12.3-17.9,11.22-1.08,17.14-9.84S612.93,692,612,692s-6.07,1.23-11.29-.77-8.15-6.61-10.61-6.53c.93-4.53-4.07-9.91-6.14-11.83s-3-6.54-2.54-7.54,15.14-1.76,15.14-9.45-6.69-12.52-12.91-13.06S580,630.65,574.81,626s-1.84-48.49-6.37-49.48-1.77,7.45-6.77,15.83-2.3,15.44-2.53,23.12-3.61,13.53-3.77,18.68-4.69,7.22-5.45,11.29,0,6.07-1.39,9.53-12.91,6.92-13,9.91,4.22,12.84,9.76,13.3c-10.3,2.38-5.69,8.91-10.22,11.29s-13.84,6-17.52,7.61-10.92,7.45-10.84,11.22,10,6.3,10,6.3l-9.37,8.84s9.83-2.08,15.83-5,14.13-1.23,14.13-1.23-7.07,12-15.67,17.68-7.95,10.46-15.48,11.83c-5.08.92-8.3-.35-13.26,3.46s-14.29,13.37-17.06,13.37a18.7,18.7,0,0,0-16.48,8.64c8.41-4,14.41-4.49,18.79-.8l-9.22,9.79a142.74,142.74,0,0,1,15.21-6.45c7.15-2.42,12.33-6.34,21.09-5.07-3.22,7.72-9.56,18.55-15,23.28S472.5,805.58,468,813c9.69-5.42,15.56-8.65,19.83-8.65s18.9-5.65,28.58-14.52,25.13-26.63,25.13-26.63-2.3,15-7.49,24.67S523,800.51,520.56,807.42s-11.75,12.11-14.29,15.45-11.06,6.34-14.29,14.18c8.76-4,35.15-4.15,35.15-4.15s-19.82,12.33-34,21.43-30.43,12.34-35.5,11.76-20.63.92-25.7,4.61c8.06.23,12.56.46,14.75,3.69s5.19.58,9.91,2.65,11.87,2.65,24.78-.46,31-6.45,31-6.45-21.32,15.56-32.62,16.48-23.51-1-27.2.8c3.11,5.54,8.53,6.46,13.25,7s12,5.18,12,5.18l-10.95,5.42s6.92,1.5,19.6-1,19.36-6.57,19.36-6.57-1.08,6.92-5.92,10.53-8.53-2.61-15.67,3.3-11,1.54-13.76,3.39-8.6-2.62-13.91.46-8.6,9.52-9.52,14,1.26,4.15-1.39,8.41-5.3,6.92-11.06,8.53-7.49,9-11.41,9.22-10.61.58-13.26,1.39c7.15-7.15,8.18-21.44,8.18-21.44s-11.06,11.87-12.44,15.9c3.45-11.64-1.85-49.21-1.85-49.21s-5.18,19.71-8.64,34.81a262.54,262.54,0,0,1-7.72,27s-8,7-9.46,7-2-2-3.8-1.5-3.34,11.18,3.11,18c-4.8,5.27-12.1,5.88-14.25,4.57s-11.07-2-13.53-3.22S335.34,988,329.92,990s-12,2.11-13.29.42-10.76-.77-14.45-1.61,1.69-6.76,6.38-9.45,5.07-13.45,3.07-15.37-14.6,1.07-16-1.62,10.6-5.61,13.52-5.3,17.6-1,17.6-1-7.45-4.38-12.68-5c5.84-2.23,8.84-11.6,8.91-15.22s13.14-13.52,19.75-30.66c-9.68,8-29.66,25.52-44.87,23.52,16.44-3.53,29.2-21,29.2-21S306.48,921,294.57,916s-13.6-4-13.6-4,2.73-5.32,7.45-6.47,5.94-6.57,3.81-8.93-7.38-3.06-8.53-4.67,10.26-.29,11.53-2,7.83-1.27,10.77-.34,10-2.31,10-2.31a18.76,18.76,0,0,0-7.66-4.61c-4.9-1.56-4.38-3.17-4.09-3.63s4.43-.46,9-2,9.27-8,9.27-8-9.08,3.23-18.07,2.3-13.3-2.3-14.6-3.84-4.07-1.46-4.07-1.46a10.8,10.8,0,0,0-1.93-5.93c-2-2.89-7.31-4.1-7-6.4s7.38-1.67,10.55-8.3-3.46-9.63-6.34-12.16-6.4-6.11-6.4-6.11,11.82,3.34,18.16.23c-6.17-2-16.06-9.22-19.08-12.74-2.77-3.22-2.07-14.17-1.84-23.16s3-40.11,2.3-40.11-4.26,16.25-5.3,22.7-4.5,10.84-5.3,13.6.8,11.18-2,15.1-13.14,9.11-13,10.49-6,3.49-6,3.49,11.87,2.11,15.45,0,1.84,5.16.23,7.23-3,6.69-3.58,11.07-5,2.3-7,5.41-3.92,3.69-3.92,5,6.11,2.54,6.69,4.84-4.54,11.1-9.53,13.49-11.14,4.15-11.68,7.07,1.77,5.68,1.77,5.68.38,4.46,3.38,4.54-12.91,3.76-18.37.92-2.46,7.07.69,9.06,3.85,5.31,7.38,6.84,9.76-.38,9.76-.38-3.53,15.29-6.22,14.75-6.07-5.61-8.46-10.37-5.91-10.3-8.53-12.14-11.37-18.52-12-24-4-16.44-4-16.44,9.84,10.76,15.14,12.6,13-.54,13-.54S214.66,857,209.89,854c7.38,2.92,28.13-7.46,28.13-7.46s-10.91-1.84-17.68-1.15c1.08-2.3,24.54-8.59,25.75-18.29-7.54-.69-18.52,3.31-18.52,3.31s-.23-2.31-4.84-3.23-13.76-2.77-17.22-7.61-13-21.13-11.06-24.89,5.61-7.07,4.76-11.22c3.23,4.91,11.6,4.07,15.52,4.15a34.44,34.44,0,0,0,16.06-3.38c-7.6-1.77-21.59-3.39-21.59-3.39s12.6-.15,18.06-4.84a64.28,64.28,0,0,0,9.6-10.68l-14.6,3.77s1.39-5.92-.76-6.61-10.84.84-15.91-7.15-9.76-15.13-9.76-15.13l1.38-4.85s7.53,3.46,12.3,1,8.91-8.07,8.91-8.07,14.91-3.53,15.06-11.52c-.15-2.31-10.68-.46-14.21-.77s-9.68-5.53-10.38-8.22.11-5.94-1.61-7-6.38-.16-7.53-1.35-5.49-7.57-5.49-7.57,5.57,4.27,9.52,3.31a33.94,33.94,0,0,0,6.92-2.5s-3.88-6.73-10-9-4.69-3.81-3.19-4,5.11-1,6.3-4.57,2.17-6.75-1.51-10.15-4.56-6.74-3.63-8.76-.24-9.16-2.42-11.69-2.54-9.23-2.48-12.22-2-13.95-2-13.95-3,16-3.42,19.88.23,9.84-2.54,13.68-4.84,5.23-3.84,11-1.23,10.14-4.45,13.83-4.23,8.3-2.46,10.37,6.84,1.46,8,3.16,1,10.91-2.61,13.52-10.61,8.61-22.21,9.07S143.27,717,140.58,715s-4.3-3.69-6.3-1.15-9.07,10.14-9.37,13.29,6.83,2.23,9.29.31,1.93,3.38,9.22,1.54c-3.3,5.07-9.52,12.91-13.21,12.83s-4.61-.31-4.46,2,3.38,4.3,8.38,3.38,17.59-3,20.28-7.3,3.38-5.3,4.31-5.23,0,2.31,1.92,4.08,9.68.92,9.68.92-16.83,12.37-29.12,15.75c5.68,2.15,12.91-.08,12.91-.08S141.66,763.2,136,763.2s-5.92,2.38-10.76.39-17.29-8.15-19.51-8,1.61,6.07,4,7.69a11.79,11.79,0,0,1,4.61,4.53,13.07,13.07,0,0,0,9.3,5.3c3.77.39,16.29.31,17.29,1.46s-9.11,9.34-14.52,9.11-13-.35-13.72,1.27,5.88,2.65,7,4.38,6.46-.46,8.76,0,5.3,2.07,9.11-.23a14.77,14.77,0,0,1,9.22-2.54c3.34,0,11.52-6.34,11.52-6.34s-5.18,7.38-8.53,9.91-9.33,6.23-9.33,6.23,12.91-1.15,26.62-12.45c-.8,8.3-1.84,20.75-20.63,34.46s-59.7,12.45-64.89,11.53c5.65,5.65,10.72,7.26,12.22,11.29a43.56,43.56,0,0,1-11.07.12s9.11,5.3,19.6,3.92a47,47,0,0,0,18.21-6.57s-10.15,12.33-18,13.83-24-.58-24-.58,7.84,8.19,13.37,9.57a27.34,27.34,0,0,1,9.68,4c2.19,1.39,23.52-6.33,23.52-6.33l-15.22,10.25s15,.58,27-9.56,19.13-17.64,20.4-16.72-7.15,13.49-21.21,24.9S106,888.34,89.83,888.68c5.65-4.61,13.79-7.91,15.94-13-8,3.3-21.36-3.15-21.36-3.15L91.17,870s-42.49-14.52-45.49-29-5.53-15.52-5.53-20.74a14.59,14.59,0,0,0-3-8.76s13.07,8.83,19.06,9.14,21.59-3.81,21.59-3.81l-10.6-3.87s22.21,1.38,31.12-5.23L83,807.62s7.76-4.15,11.3-4.08,6.53-3.07,7.91-5.15,4.38-7.37,2-8.76S91.48,792.94,84,793.94s-17.37-2-25.36-5.54S49.22,783,49.22,783a38.5,38.5,0,0,0,14.67,0c7.46-1.62,11.38-8.23,16.68-10.15s5.22-3.3,7.76-4.07,11.6-8.61,11.6-8.61S85,768.2,73.27,766s-15.37-.92-19.37-3.76-9.52-5.69-12.52-7.92-7-6.45-10.91-12.06S23.48,730,24,728.16s2.08.62,4.61,1.23,6-2.46,8.92-1.84,5.84,4.76,9.76,5.14,8.83-2.45,12-1.15,12.76,2.31,22.52.08c-6.76-4.38-11-3.92-11-3.92s15.06-4.92,20.29-10.22c-7.77-.23-18.29,4.3-24.06,3.92s-20.2-8.61-20.2-8.61S60.05,708,62.9,703.34s9.6-18,4.3-20.59S53.37,689.36,44.45,686s-20.9-11.79-22.86-13.06-.69-4.38,4.84-6,8.3-3.69,10.26-6.11-.29-5.42.06-8.41.92-7-.52-7.44-8.47.06-10.95-1.27-8.24-3.11-8.64-4,.63-2.25,1.26-3.92-.46-9.8-.46-9.8,6.69,4,9.34,4.38,9.34-4,9.34-4l-10.26-4.55S39.25,616,38.42,611.07c-.23-1.38-5.24,1.21-9.8-2.19s-10.08-5.36-10.2-9.85-3.63-5.42-2.82-11.58S13.93,581,14,577.07s-1.16-7.2-1.79-9.74-.79-22.74-.79-22.74c-1.07,5.38-4.76,15.83-4.92,21.2s1.69,9.23,0,13.38S.73,588.46,1,591.38s-3,5.07-3.38,7.76-2.23,5.92-6.84,9-9.07,2.92-9.3,4.31.54,2.69,6.22,5.22a67.65,67.65,0,0,1-17.82,4.69s8.76,2,12.83,1.61S-2.8,623.2.88,620.51c1.08-.77,2.39-.16,1.39,1.92s-7.15,8.37-13.07,10.91-6.76,5.76-6.14,7.76,3.76,2.92,6.45,1.92,4.15-1.31,5.46-1A6.86,6.86,0,0,0,.5,641c.85,3,1.38,7.46-3.3,10s-11.91,3.31-14.37,5-28.13.84-31.36-.54c5.92,6.07,14.84,6.61,14.84,6.61a23,23,0,0,1-9.23,6.22c-6,2.23-15.06-.92-17.21.69s1.77,7.15,4.77,9.69,7.83,2.15,9.22,3.22,7.22,2.08,7.22,2.08a21,21,0,0,1-10.45,5.45c-6.22,1.08-7.45,4.69-7.07,6.07s5.15,4,8.76,4.54,7.45-1.46,11.37-.69,10.45,0,11.64-1.23,3.12-4.31,4.58-4,5.14,6.92-.08,13.29-27.51,24.52-65.7,19c5.92,6.92,23.9,7.38,23.9,7.38s-10.15,3.34-13.83,6c10.6,4,18.21-.46,22.47.47s10.26,0,13.95,1.72,9.57,2.19,11.87,0,6.92,0,10.49.23,8.64-4.72,8.64-4.72a62.92,62.92,0,0,1-10,16.37c-6.8,7.95-30.66,16.59-50.49,16.71s-25.93-1.5-26.39,1,5.76,7.72,9.68,10.25,22,3.23,25.93,3.92,1.16,3.92-6.22,5.08-10.49,1.15-11.18,2.76,6.91,6.57,11.76,6.46,6-2.42,9.79-1.73,6.46-2.31,9.11-2.31,4.26,2.42,7.49-.11,8.07-2,8.88-.35,7,2.19,12.33-.11c-5.53,5.64-10.84,15.9-22,21.32s-21,3.46-25.58,7.61-5.88,5-5.88,6.91,7.83,3,14.29,2.77,22.25-1.62,31.81-11.07a70.3,70.3,0,0,0-10.26,14.64s14.18-6.57,20.52-12.68,9.45-9.45,10.6-8.76,2.08,4.73,9.11,2.77c-4.15,7-6.22,13.48-14.52,18.67s-14.76,13.26-21.21,17.06-17.75,11.87-33,12-20.63.69-25.24,0-9,1.27-9.1,3.11,2.3,3,8.41,7.72,13.49,3,13.49,3-9.11,6.8-18.1,7.84-15.45,1.27-19.71,2.3-18.21-1.5-18.21-1.5A30.76,30.76,0,0,0-116,901.25c10.83,3.22,28.93,2.65,44.26-4.15-10.26,8.64-29.62,18.32-29.62,18.32a19.85,19.85,0,0,0,16.6,2.08c9.1-3.11,10.83-6.92,13.83-6.57s6,1.38,11.29-1.62,9.45-2.19,12-3.68,6.46-5.65,6.46-5.65-1.39,6.8-5.65,11.52-4.27,8.19-4.27,8.19,7-3.46,13.83-6S-7.8,893.06-7.8,893.06a58.45,58.45,0,0,1-24.78,27.55c-18.56,10.6-40.92,25.59-48.76,30.54S-97,969.94-97,969.94s45.76-19.59,59.82-29c-26.51,19-44.72,36.88-62.59,40.57S-122.6,987-128,985.73s-7.26-2-8.18,1.39,8.53,10.37,11.06,13,17.64-.81,17.64-.81-4.84,6-4.15,8.88,12,5.42,26.05,0,19.13-10.83,21.09-10.49.92,6.46,8.53,6.23,18.33-10,20.29-9.92a10.21,10.21,0,0,0,4.38-1.15s-38.58,47.64-52.41,59-34.12,32.59-34.12,32.59c-8.14,0-17.36.3-17.21,3.22s1122.5,0,1122.5,0A22.65,22.65,0,0,0,985.3,1066ZM59.05,925.57,48.68,907.12,78.88,920Z" transform="translate(136.26 -544.59)"/>
  <path class="cls-1" d="M1991,1051.71c-1.42-11.66-12,20.14-72.8-26.5,33,7,47.35-3.89,55.83-10-18.28,5-24.11-2.12-24.11-2.12s35.78-12.46,32.86-22.8-4.24,12.46-43.46,0-40.82-34.71-40.82-34.71,6.36-1.86,6.89-6.89c16.83,7.81,38,3.18,45.45-1.86-18.41,1.19-27.82-6.76-27.82-6.76s10.6-7.15,14.84-15.37c-8.08,4.37-35-3.58-54.64-35.38,22.26-1.06,30.92-11,21.38-17.67,12,1.59,25.44-7.77,24.2-10.77-11.66,3.35-27.21,1.59-31.09-3.18s-13.25-16.44-13.25-16.44,7.77,3,12.45,1.06,4.95-4.77,8-3.79,5.21-1,3.18-4.6-3.35-5.48-8.21-7.51-11.58-7.24-14.14-18.28-6.45-10.87-6.45-10.87.75-53.84-11-55-4.37,29.41-14.71,41.34-11.79,14.84-21.86,15.24-6.76,11.26,2.65,13.12c-5,2.78-18,.53-18,.53a28.67,28.67,0,0,0,9.6,5.76c5.17,1.59,13.92,1.26,13.92,1.26s-1.73,8.94,5,11.53c-.79,4.37-19.21,12.12-19.21,12.12s12.26-8.81,7.95-12.59-7.36-.06-13.19,1.06-7.2.64-18.33-1.48-16.32-4.55-26.12-10.84-19.28-18.22-19.28-18.22l9.21.13-6.5-6.76s16.24.93,26-.39,16-5.44,14.45-10.21-5.44-4.63-10.74-5.83-7-4.86-12.59-7-9.18.36-13.34-4.15-24.11-14.66-29.68-25.18c11.4,2.83,23.15-3.44,22.53-7.86s-4.6-1-9.19-1.41-6.09-6.18-6.09-6.18,8.3,2.73,16.16.35,9.72-10.51,9-12-3.35-1.06-8.74-.53-12.11-2-13-7.15-6.27-11.75-11.48-13.52a7.07,7.07,0,0,0,5.39-6.09,9.75,9.75,0,0,0,9.89,3.8c6.36-1.42,4.59-9.72.88-12.9s-7.42-6.36-10.07-15.9-6.89-13.43-6.89-20-5.65-32.68-11.48-32.15-3.89,11.13-4.07,13.78-4.24,8.48-4.59,17-13.6,29-16.61,35-20.85,3.71-21.91,16.08,14.84.35,14.84,5.48-8.48,9.71-18.55,11.66-5.12,3.88-13.07,6.18-11.49,9.9-11.66,13.25c-7.86-1.23-12-4.33-12-4.33a11.88,11.88,0,0,0,2.48,4.51c-6.1.62-7.25-1.06-7.25-1.06s2.12,6.54,13.52,7.07,15,4.77,24,3.79c-7.07,3.18-11,9.1-16.43,9.63s-18.2,2.12-24.56,8.84-8.57,2.65-8.48,7.68,3.35,2.57,6.09,3.63,8.75,4.15,17,4.5,11.31-2.12,11.31-2.12-.26,7.51,4.33,9.19c-2.21,6-5.3,6.71-9,6.89s-6.8,2.3-6.63,5.56,3.1,5.22,9.37,5.22,17.84-2.3,17.84-2.3-15.59,22.79-44.08,31.4l-4.11-1.72s3.85-3.58,3.71-7.29c13.12-1.06,21.6-6.36,20.28-11s-11.27,2.65-26.9-13.26-18-22.13-19.75-26a10.4,10.4,0,0,0-5.56-5.17,122.57,122.57,0,0,0,14-2.51c6.1-1.59,7.29-6.23,5-9s-4-2.52-6.36-2.52-5.5-3.32-8.55-3.58-4.17-2.25-4.11-4.9-2-4.18-2.71-4.11,2.38-5.23-.6-7.36-3.18-2.38-3.11-3.44,4.17-4,3.24-7.16,1.06-3,.47-6.36-1.19-4.44-1-8.48-2-5.63-1.85-9.14,1.13-17.69-2.32-18.15-4.77,4.5-5,9.54-4.64,15.77-6.62,19.41-2.72,7.75-2.26,9.74-2.65,4.77-2.32,7.29,1.93,2.91,1.93,5.56-5,6.76-10.08,7.69-7.68-1.06-9.73,1.12-.73,6.76,3.44,8.68,6.76,4,10.07,3.52c-9.54,7.88-19.48,11.06-24.31,8.81s-3.65.46-7.29-.33-10.14-2.46-10.14-2.46,8.75,10,16.17,12c-5.1,3.11-17.89,3.51-17.89,3.51s9.21,2.52,11.79,4.64,24.12.06,24.12.06a27.52,27.52,0,0,1-9.06,7.51c-6.27,3.45-11.92,6.36-16.43,8.31s-11.48,3.53-18,5.65-8.39-1.77-10.69-2.12-3.18,1.24-5.39-.27-10.33-1.06-14.4-3.44c2.92,9.45,18.82,21.82,31.36,24.12s20-.09,20-.09,5.56,5.56,11.84,5.21c-16,14.22-24.43,19.12-39.14,20.72,4.77-8.09,7-11,6.36-12.2s-23.85,10.47-33.66,10.6-21.33-.52-33.26-5.3-31.8-8.61-36.57-16.43c23.19,8.09,36.18,2,45.72,2s21.07-7.29,21.07-7.29-11.4-1.72-20.28-1.19c-6.23-11.13-20.67-13.65-35.51-20.94,30,12.59,44.66,3.32,44.66,3.32s-13.65-7.42-16.44-16.43c14.85.39,34.59-18,34.59-18s-51.68-7.73-79.24-32.46c22.53,1.06,50.35-7.69,50.35-22.26s-1.06-2.12-23.85-5.3-31.27-8-31.27-8,20.93-.53,13.78-13c25.44,6.1,40,2.65,54.06-10.07-28.88,3.18-44.79-5.3-44.79-5.3s17.23-.27,24.39-10.07c-11.66-1.86-19.08-2.92-35.52-4.24s-17.49-5.83-17.49-5.83,17.41-5.75,16.52-12.64-12-.72-29-18.73c14.66,8.66,22.26,3.72,22.26,3.72s-9.37-9.37-14.14-15.73-9.89-11.31-11.66-19.26,2-11.66-1.59-15.72.18-14-4.77-14-1.76,4.59-4.94,12.19-5.83,11.31-5.66,19.26-19.79,31.63-26.5,50.53a40.52,40.52,0,0,0,17.84-12.72s-6.27,15.55-8.92,21.11-7.42,7.78-10.16,13.08-5.21,4.77-10.07,6.89-5.65,4.33-5.83,6.62,1.33,5.66,7.86,6.1c-10.16,5.21-26.23,12.37-31.62,15.37s-1.68,7.33,3.18,8.66,12.37,3.35,21.29,1.23,13.69-4.94,13.69-4.94a31.05,31.05,0,0,0-4.68,8.3c-1.68,4.68-46.2,26.24-64.22,28.27,14.66,6.36,62-1.85,74.47-10.69-17,29.33-33.75,31.72-47,36.75s-22.26,2.39-25.18,6.1-3.71,21.46,37.37,21.73c-6.1,9.54-18.82,6.62-22.26,11.92s-.8,13.79,10.86,15.11,6.37,7.16,6.37,7.16c-3.77,5.76-7.59,12.58-10.7,13.89s-10.4-4.06-14.82-5.26-14-2.27-19-9.92c10.51.24,19.84-5.38,18.16-9.8s-13.14-4.3-19.6-10-12.79-9.08-16.37-16.73c8.36,2.51,17.93-4.9,15.18-9.2s-11.36-1.32-22-11.84c13.14,2.51,21.27-5.85,19.72-9.32S1226,747.37,1217,731.35c6.53,2.35,16.65.84,16.73-1.47s-8.52-3.67-14.5-14.18-2.87-17-7.41-21.68c-1.11-2.87-1.51-37.37-3-37.29s-4.78,16.81-4.46,22,1.59,9.8-.64,14-2.23,7.89-2.15,11.31-3.58,5.34-4.22,7.89-8.45,4.3-8.29,6.14,5.42,2.94,7,3.9-10.83,8.37-18.72,9-5.58,3.11-8,3-3.11-1.43-3.5-.79-.56,5.41,4.22,5.17,4.94,3.51,8.76,3.91a40.16,40.16,0,0,0,7.81-.08s-3.1,4.94-6,5.74-8,.16-8.77,2.55,3,5.89,7.73,6a25.19,25.19,0,0,0,8.77-1.35s-8.29,7.49-14.59,8-15.61.24-17.29,2.24-.39,4.86,7.1,7,7.72,4.78,7.72,4.78-7.8.72-8.36,2.23,1.19,5.1,8.13,5.26,10-2,10-2-8.45,5.41-13.47,9.16-15.46,3.11-18.33,5.42-8.44,1.67-11.07,1.91-6.62,3.82-1.2,8,18.25,4.54,18.25,4.54-7,8,1.59,10.92c-1.51,6.13-19,13.62-21.19,14s-7-.16-9.56,1.43-3.67,6.86,3.9,9.25,12.67,9.4,23.35,8.36c-4.78,4.23-21.92,11.48-21.92,11.48s-17-10.2-25-21.84-15.78-22.31-20.4-26.77c18.16,4.78,31.71,4.62,40.47,3.35s14.19-3.09,14.19-4.65-18.49-4.43-21.2-5.71c6.93-3.82,5.82-8.69,5.82-8.69s-13.39,3.67-27.25-9.24-30.48-32.39-36.1-49.84a129.62,129.62,0,0,0,46.26,33c8.84,3.59,27.75,6.41,39.68.36a120.17,120.17,0,0,1-35.5-18.89s20.68-8.48,17.09-23.3c-14.34-.12-31.31-5.62-41.35-14.22s-11.48-8.13-11.48-8.13,17.69-11.12,12.67-22.59c-1.07-2.27-11.75.12-19.72-5s-9.48-4.78-12.9-9.08c7.09,1.59,19.52-1.84,17.84-8.69s-11.63-7.65-16.41-14.9c1.83-2.87,1.91-4.94.72-6.69,3.9-1.76,5.81-8.29,5.18-12.19s-5.5-13.31-10.44-19.21-6.54-39.28-8.85-39.12,0,8.05-2.47,12.35-3.18,10.36-3.66,15.86-2.15,11.71-5.26,15.22-6.61,6.53-7.09,9.16-8.05,3.51-8.13,6.53a12.91,12.91,0,0,0,3.43,8.37c1.67,1.59,5.57,1.67,5.57,1.67a33.05,33.05,0,0,1-12.74,10.36c-8,3.51-11.48,7.41-11.8,9.88s2.07,5.74,6.78,6.69,5.1,3.59,8.68,3.91,3.67-3.67,6.3-3.67,4.54.24,4.62,1.12-7.89,4.06-8.93,7.81-7.49,4.62-11.55,5.89-9.88.32-11,2.47-10,7.18-10.28,9.88,8.77,2.63,10.92,4.78,15.22,5.82,17.45,5.9,2.23.72,2.23,1.12-6.77-1.28-10.2,2.63-2.95,7.25-9.64,6.13-8.13,5.66-18.25,7-51-2.51-62.5-17.81c5.37,11.12,13,17.93,14.82,22.47s9.32,3.35,14.34,7.41,14,12.91,18.05,11.72c-2.87,3.1-22.35,6.93-32.27,1.91,4.66,6.69,17.09,8.84,20.43,11.23s15.78,4.67,21.88,2.75,18-2,18-2a4.36,4.36,0,0,0,4.66,1.44c-1.31,3-11.83,7.65-17.92,13.62s-43.39,24.62-55.1,23.31c3.34,5.62,16.13,11.47,25.93,12.31s26.06-.72,26.06-.72.36,7.41-12.31,10.4c9.92,6,32.27,3.7,32.27,3.7s-7.41,1.92-16.85,12.67-31.8,12.55-36.93,17.81-20.92,11.24-26.66,11.24-22,2.63-25.57.35-9.69,2.16-.48,12.43S903,894.14,912,894.14s29.76-1.2,29.76-1.2-28.57,16.86-29.4,19.36,2,9.09,13.74,8.25,36.57-7.17,44.82-15.18c-.84,6.93,3.59,8.73,6.81,8.85s12.67-3.11,22.47-12.31c-5,8.48-26.13,34.26-46.05,44.78s-41.91,12.9-43.51,17.69-.79,12,14.19,12.9S950.48,979,950.48,979s-24.86,27.25-41,36.49-34.58,11-40.32,9.56-8,5.74-1,9.72,12,4.62,14.19,6.22,12.59-.16,19.28,1.91,29.32-4.78,29.32-4.78a5.9,5.9,0,0,0,1,7c-13.39,8.13-15,18.65-21,21.2s-32.24,10.58-38,18.91H1950S1992.38,1063.37,1991,1051.71ZM1096.53,921.27a22.67,22.67,0,0,1-6.21-11.24l16.25,8.61S1101.08,919.83,1096.53,921.27ZM1119.72,900l13.39,1-6,6.45Zm28.93,66.22a45.11,45.11,0,0,1-17.93-14.11c13.14,5,32.75,2.4,32.75,2.4Zm310.27-84.86-2.87-7.65,7.17-7.89,9.32,9.56Zm176.41,9.32-8.61-8.6h14.34ZM1648,867.25l-12.67-6.46h21Zm3.82-23.43-16.49-6.69s25.34-.48,33-4.31C1664.25,837.61,1651.82,843.82,1651.82,843.82ZM1819.63,872c-3.19,1.27-21,4-25,11.79s18,15.14,18,15.14C1809,904.3,1807,913.7,1807,913.7l-23-18H1789l-21.35-20.08,12.43,4.31L1764,860.79s19.6-.32,25.34,3.83,1-12.11-3.19-15.46c11.95,3,27.41,0,27.41,0s-9.08,7.49-14.82,12-3.51,8.29,11,6.37,17-2.86,17-2.86S1822.81,870.67,1819.63,872Z" transform="translate(136.26 -544.59)"/>
</svg>
