<svg id="Ebene_1" data-name="Ebene 1" xmlns="http://www.w3.org/2000/svg" viewBox="0 0 1500 750">
  <defs>
    <style>
      .cls-1 {
        fill: #fff;
      }

      .cls-2 {
        fill: #cc1f1d;
      }
    </style>
  </defs>
  <g>
    <path class="cls-1" d="M142.06,572.24q-27.34,25-78.52,25H1.77v-44.7H69.42q21.75,0,35.29-12.95t13.53-31.17V229.61H23.54V185.49H169.41V497.24Q169.41,547.25,142.06,572.24Z"/>
    <path class="cls-1" d="M490.28,572.24q-27.34,25-78.52,25H397.05q-51.18,0-78.53-25t-27.35-75V185.49h51.18V508.42q0,18.24,13.52,31.17t35.3,12.95h26.47q21.75,0,35.29-12.95t13.53-31.17V185.49h51.17V497.24Q517.63,547.25,490.28,572.24Z"/>
    <path class="cls-1" d="M682.33,185.49v367H813.5v44.7H631.16V185.49Z"/>
    <path class="cls-1" d="M1140.55,597.24H932.32V545.48L1093.49,229H945.85V185.49h200.58v51.76L985.85,553.71h154.7Z"/>
  </g>
  <rect class="cls-2" x="1248.12" y="104" width="252.06" height="543"/>
</svg>
