<svg id="Ebene_1" data-name="Ebene 1" xmlns="http://www.w3.org/2000/svg" viewBox="0 0 500 250">
  <defs>
    <style>
      .cls-1 {
        fill: #fff;
      }

      .cls-2 {
        fill: #cc1f1d;
      }
    </style>
  </defs>
  <g>
    <path class="cls-1" d="M47.94,188.33q-9.11,8.32-26.17,8.33H1.18v-14.9H23.73q7.24,0,11.76-4.32A13.83,13.83,0,0,0,40,167.05V74.11H8.44V59.41H57.06V163.33Q57.06,180,47.94,188.33Z"/>
    <path class="cls-1" d="M164,188.33q-9.12,8.32-26.18,8.33h-4.9q-17.06,0-26.18-8.33t-9.11-25V59.41h17.06V167.05a13.85,13.85,0,0,0,4.5,10.39q4.52,4.32,11.77,4.32h8.82q7.26,0,11.77-4.32a13.86,13.86,0,0,0,4.51-10.39V59.41h17V163.33Q173.13,180,164,188.33Z"/>
    <path class="cls-1" d="M228,59.41V181.76h43.73v14.9H211V59.41Z"/>
    <path class="cls-1" d="M380.77,196.66H311.36V179.41L365.09,73.92H315.87V59.41h66.86V76.66L329.21,182.15h51.56Z"/>
  </g>
  <rect class="cls-2" x="416.04" y="35" width="84.02" height="181"/>
</svg>
